<?xml version="1.0" encoding="UTF-8" standalone="no"?>
<svg
   xmlns:dc="http://purl.org/dc/elements/1.1/"
   xmlns:cc="http://creativecommons.org/ns#"
   xmlns:rdf="http://www.w3.org/1999/02/22-rdf-syntax-ns#"
   xmlns:svg="http://www.w3.org/2000/svg"
   xmlns="http://www.w3.org/2000/svg"
   xmlns:sodipodi="http://sodipodi.sourceforge.net/DTD/sodipodi-0.dtd"
   xmlns:inkscape="http://www.inkscape.org/namespaces/inkscape"
   viewBox="0 0 787.70784 195.4068"
   height="195.4068"
   width="787.70782"
   xml:space="preserve"
   id="svg2"
   version="1.1"
   inkscape:version="0.91 r13725"
   sodipodi:docname="logotipo_desprendete_color_negativo_azul.svg"><sodipodi:namedview
     pagecolor="#ffffff"
     bordercolor="#666666"
     borderopacity="1"
     objecttolerance="10"
     gridtolerance="10"
     guidetolerance="10"
     inkscape:pageopacity="0"
     inkscape:pageshadow="2"
     inkscape:window-width="1440"
     inkscape:window-height="806"
     id="namedview100"
     showgrid="false"
     fit-margin-top="0"
     fit-margin-left="0"
     fit-margin-right="0"
     fit-margin-bottom="0"
     inkscape:zoom="0.27616443"
     inkscape:cx="392.22583"
     inkscape:cy="96.94643"
     inkscape:window-x="0"
     inkscape:window-y="1"
     inkscape:window-maximized="1"
     inkscape:current-layer="svg2" /><metadata
     id="metadata8"><rdf:RDF><cc:Work
         rdf:about=""><dc:format>image/svg+xml</dc:format><dc:type
           rdf:resource="http://purl.org/dc/dcmitype/StillImage" /><dc:title></dc:title></cc:Work></rdf:RDF></metadata><defs
     id="defs6"><clipPath
       id="clipPath20"
       clipPathUnits="userSpaceOnUse"><path
         id="path18"
         d="m 0,595.275 841.89,0 L 841.89,0 0,0 Z"
         inkscape:connector-curvature="0" /></clipPath></defs><g
     clip-path="url(#clipPath20)"
     id="g16"
     transform="matrix(1.3333333,0,0,-1.3333333,-169.034,495.31039)"><g
       transform="translate(336.2651,307.7856)"
       id="g22"><path
         id="path24"
         style="fill:#ffffff;fill-opacity:1;fill-rule:evenodd;stroke:none"
         d="m 0,0 c -0.816,0.882 -1.213,2.073 -1.213,3.573 0,2.294 0.662,4.455 1.963,6.484 1.323,2.028 2.58,3.043 3.815,3.043 1.015,0 1.853,-0.529 2.492,-1.588 C 7.719,10.454 8.05,9.571 8.05,8.866 8.05,8.513 7.719,7.652 7.057,6.286 6.396,4.918 6.065,4.146 6.065,3.97 6.153,3.176 6.947,2.228 8.469,1.125 c 1.522,-1.103 3.154,-2.184 4.94,-3.242 1.786,-1.059 3.418,-2.625 4.896,-4.697 1.478,-2.074 2.205,-4.39 2.205,-6.948 0,-2.822 -1.169,-6.704 -3.484,-11.644 -2.316,-4.94 -3.485,-8.116 -3.485,-9.527 0,-2.029 1.125,-3.044 3.353,-3.044 3.881,0 8.204,2.184 12.967,6.551 1.814,1.662 3.423,3.315 4.828,4.959 1.149,6.541 4.721,13.23 10.728,20.093 4.304,4.917 8.689,8.407 13.155,10.473 l 0,-8.337 c -0.85,-0.788 -1.714,-1.669 -2.591,-2.643 -4.587,-5.117 -7.852,-10.541 -9.792,-16.276 3.953,0.478 8.078,2.114 12.383,4.908 l 0,-6.288 c -4.35,-1.838 -8.961,-3.01 -13.839,-3.515 -0.176,-0.883 -0.264,-1.898 -0.264,-3.044 0,-0.882 0.066,-1.721 0.198,-2.514 0.132,-0.794 0.485,-1.875 1.059,-3.242 0.573,-1.367 1.632,-2.471 3.176,-3.309 1.543,-0.838 3.462,-1.256 5.756,-1.256 1.298,0 2.603,0.127 3.914,0.381 l 0,-5.172 c -2.249,-0.511 -4.525,-0.767 -6.825,-0.767 -5.514,0 -9.814,1.477 -12.88,4.455 -2.475,2.403 -3.943,5.353 -4.417,8.838 -1.239,-1.297 -2.57,-2.552 -3.993,-3.766 -5.69,-4.851 -11.38,-7.277 -17.048,-7.277 -3.22,0 -5.845,0.882 -7.851,2.624 -2.007,1.765 -3,4.102 -3,7.035 0,2.559 1.235,6.616 3.683,12.174 2.448,5.558 3.683,9.351 3.683,11.38 0,3.352 -2.161,6.175 -6.484,8.469 -5.294,-13.738 -23.027,-39.091 -40.108,-39.091 -3.353,0 -3.82,-0.736 -5.445,1.388 l 11.052,3.522 C -17.361,-36.497 -4.503,-10.259 0,0 m 58.572,-41.036 0,-5.172 c 4.65,1.059 9.189,3.211 13.618,6.466 2.627,1.931 5.01,4.108 7.15,6.53 -1.394,-3.255 -2.096,-4.927 -2.106,-5.018 1.594,-3.242 4.287,-4.863 8.08,-4.863 l 7.523,12.576 c 1.89,3.018 4.564,6.987 8.025,11.906 3.46,4.918 6.704,8.635 9.729,11.151 3.027,2.515 5.764,3.772 8.212,3.772 3.088,0 4.398,-2.18 3.931,-6.54 -0.264,-2.459 -1.283,-6.204 -3.057,-11.234 -1.774,-5.031 -2.781,-8.663 -3.02,-10.899 -0.372,-3.466 0.255,-6.261 1.88,-8.385 1.625,-2.124 4.113,-3.185 7.465,-3.185 5.335,0 10.707,3.607 16.122,10.818 0.001,-3.965 1.126,-6.961 3.396,-9.032 2.272,-2.073 4.852,-3.109 7.719,-3.109 3.793,0 7.983,1.896 12.593,5.668 4.586,3.793 9.042,8.842 13.365,15.15 -0.706,-3.683 -1.059,-6.527 -1.059,-8.535 0,-7.829 3.22,-11.754 9.659,-11.754 5.029,0 10.101,2.315 15.218,6.925 1.614,1.454 3.119,3.043 4.514,4.764 0.696,-2.627 2.034,-4.909 4.02,-6.838 3.066,-2.977 7.367,-4.455 12.88,-4.455 2.301,0 4.576,0.256 6.825,0.768 l 0,5.172 c -1.31,-0.255 -2.615,-0.382 -3.914,-0.382 -2.294,0 -4.213,0.419 -5.756,1.257 -1.543,0.838 -2.602,1.941 -3.175,3.308 -0.575,1.368 -0.927,2.449 -1.059,3.243 -0.133,0.793 -0.199,1.631 -0.199,2.513 0,1.147 0.089,2.161 0.265,3.044 4.878,0.505 9.489,1.678 13.838,3.516 l 0,6.287 c -4.305,-2.794 -8.429,-4.43 -12.382,-4.907 1.94,5.734 5.205,11.159 9.792,16.276 0.877,0.973 1.741,1.854 2.59,2.643 l 0,8.337 c -4.465,-2.067 -8.851,-5.557 -13.155,-10.473 -6.975,-7.97 -10.668,-15.706 -11.095,-23.246 -1.463,-1.916 -3.014,-3.615 -4.651,-5.094 -3.882,-3.506 -7.321,-5.248 -10.321,-5.248 -0.971,0 -1.655,0.374 -2.051,1.125 -0.398,0.728 -0.596,2.161 -0.596,4.256 0,6.418 1.588,14.203 4.764,23.333 3.176,9.153 6.616,17.423 10.321,24.855 l 10.19,21.105 c 3.174,6.595 4.763,10.829 4.763,12.682 0,1.124 -0.376,2.072 -1.125,2.822 -0.75,0.75 -1.61,1.125 -2.581,1.125 -1.322,0 -2.734,-0.728 -4.234,-2.183 -1.499,-1.456 -3.153,-3.749 -4.962,-6.925 -1.809,-3.154 -3.462,-6.219 -4.962,-9.174 -1.5,-2.934 -3.309,-6.97 -5.425,-12.064 l -5.161,-12.46 -5.16,-13.145 c -4.059,-10.431 -8.822,-18.833 -14.291,-25.23 -5.492,-6.395 -10.123,-9.594 -13.916,-9.594 -2.823,0 -4.234,1.831 -4.234,5.515 0,3.506 1.146,7.784 3.44,12.813 2.293,5.05 5.579,9.615 9.88,13.739 4.278,4.125 8.667,6.176 13.166,6.176 2.382,0 3.926,-0.486 4.632,-1.456 1.057,0.64 1.588,1.654 1.588,3.087 0,2.89 -2.162,4.323 -6.485,4.323 -5.8,0 -11.688,-2.382 -17.687,-7.123 -5.977,-4.764 -10.762,-10.277 -14.379,-16.563 -1.527,-2.669 -2.731,-5.219 -3.611,-7.645 -1.322,-2.004 -2.671,-3.896 -4.049,-5.673 -3.942,-5.087 -7.367,-7.63 -10.279,-7.63 -2.183,0 -3.09,1.621 -2.743,4.863 0.239,2.236 1.532,6.065 3.878,11.486 2.345,5.421 3.716,9.977 4.11,13.666 0.447,4.164 -0.162,7.741 -1.801,10.759 -1.643,2.991 -4.238,4.5 -7.81,4.5 -7.676,0 -16.792,-7.49 -27.395,-22.469 2.215,6.875 3.471,11.821 3.793,14.811 0.347,3.242 -0.976,4.891 -3.997,4.891 -2.581,0 -4.971,-1.313 -7.146,-3.912 -0.452,-4.221 -1.713,-9.391 -3.78,-15.511 -2.704,-8.007 -8.521,-15.236 -15.565,-20.728 -4.251,-3.312 -8.437,-5.368 -12.56,-6.168 m 0,45.135 c 3.247,1.502 6.537,2.253 9.869,2.253 6.528,0 9.792,-2.912 9.792,-8.734 0,-6.351 -3.462,-11.997 -10.365,-16.937 -2.957,-2.109 -6.055,-3.848 -9.296,-5.218 l 0,6.288 c 1.267,0.823 2.55,1.745 3.848,2.767 5.69,4.499 8.535,9.086 8.535,13.762 0,1.676 -0.749,2.514 -2.249,2.514 -3.143,0 -6.517,-1.678 -10.134,-5.032 z m 172.682,-42.488 0,-5.172 c 4.651,1.059 9.19,3.211 13.62,6.466 3.232,2.376 6.096,5.126 8.592,8.246 -0.039,-0.672 -0.058,-1.318 -0.058,-1.939 0,-4.587 1.146,-8.072 3.44,-10.409 2.294,-2.36 5.47,-3.529 9.527,-3.529 6.175,0 12.13,2.602 17.864,7.785 2.168,1.96 4.184,4.141 6.05,6.54 0.376,-3.762 1.869,-6.925 4.492,-9.473 3.065,-2.977 7.366,-4.455 12.88,-4.455 2.3,0 4.576,0.256 6.825,0.768 l 0,5.172 c -1.311,-0.255 -2.616,-0.382 -3.914,-0.382 -2.294,0 -4.212,0.419 -5.756,1.257 -1.544,0.838 -2.603,1.941 -3.176,3.308 -0.574,1.368 -0.927,2.449 -1.058,3.243 -0.133,0.793 -0.2,1.631 -0.2,2.513 0,1.147 0.089,2.161 0.265,3.044 4.879,0.505 9.488,1.678 13.839,3.516 l 0,6.287 c -4.306,-2.794 -8.43,-4.43 -12.383,-4.907 1.94,5.734 5.205,11.159 9.792,16.276 0.877,0.973 1.741,1.854 2.591,2.643 l 0,8.337 c -4.466,-2.067 -8.852,-5.557 -13.154,-10.473 -6.475,-7.396 -10.12,-14.59 -10.953,-21.613 -1.896,-2.504 -3.921,-4.696 -6.074,-6.573 -4.631,-4.035 -9.152,-6.064 -13.563,-6.064 -2.47,0 -4.279,0.75 -5.425,2.271 -1.147,1.5 -1.72,4.081 -1.72,7.719 0,6.947 2.293,15.858 6.881,26.796 7.233,0 16.099,0.441 26.597,1.323 l 0,4.632 C 291.076,4.146 283.004,3.837 272.86,3.837 c 1.851,3.705 4.322,8.161 7.41,13.365 3.087,5.205 5.469,9.373 7.145,12.505 1.676,3.131 2.514,5.491 2.514,7.079 0,1.147 -0.375,2.073 -1.125,2.779 -0.749,0.706 -1.609,1.059 -2.58,1.059 -2.823,0 -6.506,-3.573 -11.049,-10.719 -4.543,-7.145 -8.8,-15.702 -12.769,-25.671 -2.117,0.177 -4.235,0.397 -6.352,0.662 l 0,-4.344 c 0.794,-0.309 2.338,-0.684 4.632,-1.081 -2.818,-7.713 -4.818,-14.346 -6,-19.904 -3.004,-4.55 -6.627,-8.48 -10.871,-11.788 -4.251,-3.313 -8.438,-5.369 -12.561,-6.168 m 0,45.135 c 3.247,1.502 6.538,2.252 9.871,2.252 6.527,0 9.792,-2.911 9.792,-8.734 0,-6.351 -3.463,-11.997 -10.367,-16.936 -2.956,-2.11 -6.053,-3.849 -9.296,-5.218 l 0,6.287 c 1.268,0.822 2.55,1.744 3.849,2.768 5.69,4.499 8.535,9.086 8.535,13.761 0,1.677 -0.75,2.514 -2.25,2.514 -3.142,0 -6.516,-1.677 -10.134,-5.031 z m 83.232,-45.135 0,-5.172 c 4.65,1.059 9.189,3.211 13.619,6.466 6.571,4.83 11.622,11.204 15.15,19.098 l -2.646,2.118 c -3.441,-6.528 -7.961,-11.975 -13.563,-16.342 -4.251,-3.313 -8.437,-5.369 -12.56,-6.168 m 0,45.135 c 3.247,1.502 6.537,2.252 9.87,2.252 6.527,0 9.792,-2.911 9.792,-8.734 0,-6.351 -3.463,-11.997 -10.366,-16.936 -2.956,-2.11 -6.055,-3.849 -9.296,-5.218 l 0,6.287 c 1.267,0.822 2.55,1.744 3.848,2.768 5.691,4.499 8.536,9.086 8.536,13.761 0,1.677 -0.75,2.514 -2.25,2.514 -3.143,0 -6.517,-1.677 -10.134,-5.031 z"
         inkscape:connector-curvature="0" /></g><g
       transform="translate(262.3403,228.6973)"
       id="g26"><path
         id="path28"
         style="fill:#ffffff;fill-opacity:1;fill-rule:nonzero;stroke:none"
         d="m 0,0 c 1.861,5.566 3.417,11.243 5.268,16.447 8.322,23.398 10.7,42.636 13.118,67.67 0.085,0.882 0.193,1.477 0.321,1.786 0.128,0.309 0.406,0.596 0.835,0.86 0.449,0.265 1.091,0.397 1.969,0.397 2.504,0 4.409,-0.727 5.715,-2.183 1.306,-1.456 1.948,-3.198 1.948,-5.271 0,-2.051 -0.599,-6.043 -1.82,-12.019 6.336,9.637 13.314,14.445 20.935,14.445 4.238,0 7.727,-1.367 10.488,-4.102 2.762,-2.735 4.153,-6.462 4.153,-11.137 0,-4.698 -1.263,-9.572 -3.789,-14.644 -2.526,-5.051 -6.272,-9.439 -11.238,-13.145 -4.965,-3.682 -10.36,-5.535 -16.182,-5.535 -2.654,0 -4.816,0.353 -6.486,1.036 -1.669,0.684 -2.504,1.457 -2.504,2.316 0,0.86 1.027,1.279 3.061,1.279 7.599,0.177 13.978,3.132 19.136,8.821 5.158,5.713 7.727,11.799 7.727,18.262 0,2.844 -0.599,5.182 -1.798,7.057 -1.198,1.852 -2.997,2.779 -5.394,2.779 -3.939,0 -7.941,-2.25 -11.987,-6.771 C 29.431,63.827 26.434,59.262 24.464,54.675 23.245,50.33 21.917,45.147 20.462,39.127 17.993,28.543 15.734,18.718 12.65,8.336 11.499,4.461 10.296,1.544 9.054,-0.396 7.813,-2.338 6.507,-3.308 5.137,-3.308 4.11,-3.308 3.013,-2.905 1.863,-2.117 0.712,-1.329 0.085,-0.617 0,0"
         inkscape:connector-curvature="0" /></g><g
       transform="translate(689.8574,371.4448)"
       id="g30"><path
         id="path32"
         style="fill:#ed193a;fill-opacity:1;fill-rule:evenodd;stroke:none"
         d="m 0,0 0,-5.562 c -0.245,0.088 -0.502,0.132 -0.759,0.132 -0.572,0 -1.143,-0.218 -1.579,-0.653 -0.434,-0.436 -0.652,-1.008 -0.652,-1.579 0,-0.571 0.218,-1.144 0.652,-1.579 0.561,-0.56 1.383,-0.987 2.338,-1.335 l 0,-46.842 -6.607,0 c -4.058,0 -7.378,3.32 -7.378,7.378 l 0,26.929 c 0,4.057 3.32,7.377 7.378,7.377 l 4.791,0 c -1.628,0.586 -3.148,1.389 -4.387,2.628 -1.503,1.503 -2.256,3.474 -2.256,5.444 0,1.97 0.753,3.94 2.256,5.444 1.503,1.504 3.474,2.256 5.444,2.256 C -0.506,0.038 -0.253,0.025 0,0 m 13.343,-5.562 c -0.3,-0.108 -0.58,-0.282 -0.82,-0.521 -1.117,-1.117 -1.691,-3.192 -2.171,-5.324 1.044,0.237 2.079,0.498 2.991,0.831 l 0,-46.842 -3.448,0 0,41.684 -6.076,0 0,-41.684 -3.819,0 0,46.842 C 0.912,-10.909 1.945,-11.17 2.99,-11.407 2.511,-9.275 1.936,-7.2 0.819,-6.083 0.58,-5.844 0.299,-5.67 0,-5.562 L 0,0 c 1.71,-0.168 3.375,-0.908 4.685,-2.218 0.841,-0.842 1.481,-1.802 1.986,-2.831 0.506,1.029 1.144,1.989 1.986,2.831 1.311,1.31 2.976,2.05 4.686,2.218 z m 2.337,-0.521 c -0.435,0.435 -1.007,0.653 -1.578,0.653 -0.257,0 -0.515,-0.045 -0.759,-0.132 l 0,5.562 c 0.252,0.025 0.506,0.038 0.759,0.038 1.969,0 3.94,-0.752 5.444,-2.256 1.503,-1.504 2.255,-3.474 2.255,-5.444 0,-1.97 -0.752,-3.941 -2.255,-5.444 -1.239,-1.239 -2.76,-2.042 -4.387,-2.628 l 5.162,0 c 4.059,0 7.378,-3.32 7.378,-7.377 l 0,-26.929 c 0,-4.058 -3.319,-7.378 -7.378,-7.378 l -6.978,0 0,46.842 c 0.955,0.348 1.777,0.775 2.337,1.335 0.435,0.435 0.653,1.008 0.653,1.579 0,0.571 -0.218,1.143 -0.653,1.579"
         inkscape:connector-curvature="0" /></g><g
       transform="translate(289.6055,227.248)"
       id="g34"><path
         id="path36"
         style="fill:#ffffff;fill-opacity:1;fill-rule:nonzero;stroke:none"
         d="m 0,0 c 0.005,-0.371 0.088,-0.7 0.261,-0.993 0.167,-0.293 0.397,-0.523 0.69,-0.691 0.292,-0.171 0.622,-0.255 0.993,-0.26 l 6.239,0 c 0.565,0.002 1.114,0.033 1.646,0.094 l 0,3.558 C 9.308,1.617 8.759,1.569 8.183,1.567 l -4.327,0 0,14.925 4.327,0 c 0.576,-0.003 1.125,-0.051 1.646,-0.144 l 0,3.559 C 9.296,19.968 8.748,20 8.183,20.003 l -6.239,0 C 1.573,19.998 1.243,19.915 0.951,19.742 0.658,19.575 0.428,19.345 0.261,19.053 0.088,18.76 0.005,18.431 0,18.06 Z m 9.829,-1.85 c 0.773,0.089 1.511,0.241 2.216,0.454 1.191,0.361 2.268,0.873 3.224,1.537 0.957,0.664 1.777,1.447 2.461,2.356 0.68,0.909 1.203,1.918 1.568,3.021 0.361,1.102 0.544,2.273 0.549,3.511 l 0,0.063 c -0.005,1.553 -0.293,2.989 -0.852,4.311 -0.559,1.323 -1.359,2.477 -2.393,3.46 -1.035,0.988 -2.263,1.756 -3.685,2.304 -0.96,0.37 -1.99,0.616 -3.088,0.74 l 0,-3.559 c 0.524,-0.093 1.021,-0.232 1.489,-0.415 0.936,-0.371 1.736,-0.889 2.404,-1.563 0.669,-0.669 1.181,-1.458 1.537,-2.362 0.36,-0.904 0.538,-1.897 0.543,-2.979 l 0,-0.062 C 15.797,7.891 15.619,6.897 15.259,5.999 14.903,5.1 14.391,4.315 13.722,3.657 13.054,2.994 12.254,2.481 11.318,2.121 10.85,1.937 10.353,1.801 9.829,1.708 Z"
         inkscape:connector-curvature="0" /></g><g
       transform="translate(316.2432,225.3037)"
       id="g38"><path
         id="path40"
         style="fill:#ffffff;fill-opacity:1;fill-rule:nonzero;stroke:none"
         d="m 0,0 12.917,0 c 0.319,0.005 0.606,0.078 0.868,0.229 0.256,0.153 0.465,0.356 0.617,0.618 0.157,0.256 0.235,0.549 0.24,0.878 -0.005,0.318 -0.083,0.605 -0.24,0.867 -0.152,0.256 -0.361,0.465 -0.617,0.616 -0.262,0.157 -0.549,0.235 -0.868,0.241 l -11.005,0 0,5.895 9.438,0 c 0.318,0.005 0.606,0.078 0.867,0.229 0.257,0.152 0.465,0.351 0.617,0.607 0.157,0.256 0.235,0.538 0.24,0.856 -0.005,0.329 -0.083,0.622 -0.24,0.889 -0.152,0.261 -0.36,0.471 -0.617,0.627 -0.261,0.157 -0.549,0.235 -0.867,0.24 l -9.438,0 0,5.707 10.849,0 c 0.319,0.005 0.606,0.083 0.867,0.23 0.257,0.151 0.465,0.355 0.617,0.616 0.157,0.257 0.235,0.554 0.24,0.878 -0.005,0.319 -0.083,0.606 -0.24,0.868 -0.152,0.256 -0.36,0.465 -0.617,0.621 -0.261,0.152 -0.548,0.23 -0.867,0.235 L 0,21.947 c -0.371,-0.005 -0.701,-0.088 -0.993,-0.26 -0.293,-0.167 -0.523,-0.398 -0.69,-0.69 -0.172,-0.293 -0.256,-0.622 -0.261,-0.993 l 0,-18.06 c 0.005,-0.371 0.089,-0.7 0.261,-0.993 0.167,-0.293 0.397,-0.522 0.69,-0.69 C -0.701,0.089 -0.371,0.005 0,0"
         inkscape:connector-curvature="0" /></g><g
       transform="translate(344.3491,227.248)"
       id="g42"><path
         id="path44"
         style="fill:#ffffff;fill-opacity:1;fill-rule:nonzero;stroke:none"
         d="m 0,0 c 0.005,-0.371 0.089,-0.7 0.261,-0.993 0.168,-0.293 0.398,-0.523 0.69,-0.691 0.293,-0.171 0.622,-0.255 0.993,-0.26 l 11.851,0 c 0.33,0.005 0.622,0.083 0.889,0.24 0.261,0.157 0.47,0.365 0.627,0.627 0.157,0.266 0.235,0.559 0.24,0.889 -0.005,0.329 -0.083,0.622 -0.24,0.887 -0.157,0.262 -0.366,0.471 -0.627,0.628 -0.267,0.156 -0.559,0.235 -0.889,0.24 l -9.939,0 0,16.68 C 3.851,18.608 3.768,18.933 3.595,19.22 3.428,19.507 3.204,19.731 2.916,19.904 2.628,20.071 2.305,20.155 1.944,20.16 1.573,20.155 1.244,20.071 0.951,19.904 0.659,19.731 0.429,19.507 0.261,19.22 0.089,18.933 0.005,18.608 0,18.247 Z"
         inkscape:connector-curvature="0" /></g><g
       transform="translate(373.1504,224.9277)"
       id="g46"><path
         id="path48"
         style="fill:#ffffff;fill-opacity:1;fill-rule:nonzero;stroke:none"
         d="m 0,0 0.032,0 0,3.574 c -1.081,0.009 -2.074,0.218 -2.974,0.616 -0.909,0.403 -1.693,0.962 -2.362,1.673 -0.664,0.71 -1.181,1.536 -1.542,2.472 -0.365,0.935 -0.549,1.943 -0.553,3.015 l 0,0.062 c 0.004,1.071 0.182,2.075 0.543,3.01 0.355,0.931 0.867,1.756 1.521,2.462 0.658,0.711 1.437,1.264 2.341,1.661 0.904,0.403 1.902,0.606 2.994,0.612 l 0.032,-0.001 0,3.544 c -1.342,-0.009 -2.591,-0.201 -3.753,-0.585 -1.175,-0.387 -2.231,-0.93 -3.177,-1.631 -0.946,-0.7 -1.761,-1.526 -2.435,-2.471 -0.679,-0.947 -1.197,-1.981 -1.563,-3.11 -0.36,-1.129 -0.543,-2.309 -0.548,-3.553 l 0,-0.063 c 0.005,-1.238 0.183,-2.425 0.543,-3.543 0.36,-1.124 0.873,-2.158 1.542,-3.098 C -8.685,3.704 -7.88,2.89 -6.939,2.194 -5.999,1.499 -4.943,0.961 -3.778,0.58 -2.613,0.198 -1.354,0.005 0,0 m 0.032,0 c 1.341,0.008 2.59,0.206 3.752,0.585 1.175,0.387 2.231,0.93 3.182,1.63 0.946,0.7 1.756,1.526 2.435,2.472 0.674,0.946 1.197,1.986 1.557,3.109 0.361,1.129 0.544,2.315 0.549,3.554 l 0,0.062 c -0.005,1.244 -0.183,2.425 -0.544,3.549 -0.355,1.123 -0.872,2.152 -1.541,3.094 -0.674,0.94 -1.479,1.756 -2.42,2.45 -0.94,0.695 -1.99,1.233 -3.161,1.615 -1.166,0.381 -2.424,0.574 -3.779,0.58 l -0.03,0 0,-3.544 C 1.116,19.147 2.104,18.938 3.005,18.535 3.914,18.133 4.703,17.568 5.367,16.853 6.03,16.137 6.548,15.311 6.908,14.37 7.274,13.43 7.457,12.421 7.462,11.35 l 0,-0.063 C 7.457,10.216 7.279,9.213 6.919,8.282 6.563,7.353 6.057,6.537 5.398,5.831 4.74,5.126 3.961,4.577 3.057,4.181 2.158,3.783 1.155,3.579 0.062,3.574 l -0.03,0 z"
         inkscape:connector-curvature="0" /></g><g
       transform="translate(408.8442,224.9277)"
       id="g50"><path
         id="path52"
         style="fill:#ffffff;fill-opacity:1;fill-rule:nonzero;stroke:none"
         d="m 0,0 0.031,0 0,3.574 c -1.08,0.009 -2.073,0.218 -2.973,0.616 -0.91,0.403 -1.693,0.962 -2.362,1.673 -0.664,0.71 -1.181,1.536 -1.542,2.472 -0.366,0.935 -0.549,1.943 -0.554,3.015 l 0,0.062 c 0.005,1.071 0.183,2.075 0.544,3.01 0.355,0.931 0.867,1.756 1.521,2.462 0.658,0.711 1.437,1.264 2.34,1.661 0.905,0.403 1.903,0.606 2.995,0.612 l 0.031,-0.001 0,3.544 c -1.342,-0.009 -2.591,-0.201 -3.752,-0.585 -1.176,-0.387 -2.231,-0.93 -3.177,-1.631 -0.946,-0.7 -1.761,-1.526 -2.435,-2.471 -0.68,-0.947 -1.197,-1.981 -1.563,-3.11 -0.36,-1.129 -0.543,-2.309 -0.548,-3.553 l 0,-0.063 c 0.005,-1.238 0.182,-2.425 0.543,-3.543 0.36,-1.124 0.873,-2.158 1.542,-3.098 C -8.685,3.704 -7.88,2.89 -6.94,2.194 -6,1.499 -4.944,0.961 -3.778,0.58 -2.613,0.198 -1.354,0.005 0,0 M 0.031,0 C 1.294,0.008 2.48,0.186 3.6,0.543 4.724,0.898 5.748,1.405 6.678,2.069 L 8.246,0.658 C 8.418,0.485 8.617,0.345 8.836,0.245 9.061,0.146 9.312,0.094 9.594,0.094 c 0.34,0.005 0.643,0.089 0.92,0.256 0.271,0.167 0.491,0.391 0.653,0.669 0.157,0.277 0.24,0.585 0.246,0.924 0,0.329 -0.068,0.612 -0.194,0.858 -0.13,0.245 -0.303,0.46 -0.528,0.647 L 9.28,4.608 c 0.711,0.962 1.26,2.018 1.641,3.163 0.387,1.138 0.58,2.335 0.586,3.579 l 0,0.062 c -0.006,1.244 -0.183,2.425 -0.544,3.549 -0.355,1.123 -0.873,2.152 -1.541,3.094 -0.674,0.94 -1.479,1.756 -2.42,2.45 C 6.062,21.2 5.011,21.738 3.84,22.12 2.675,22.501 1.416,22.694 0.062,22.7 l -0.031,0 0,-3.544 C 1.116,19.147 2.104,18.938 3.004,18.535 3.914,18.133 4.703,17.568 5.366,16.853 6.03,16.137 6.547,15.311 6.908,14.37 7.274,13.43 7.457,12.421 7.462,11.35 l 0,-0.063 C 7.462,10.503 7.368,9.761 7.19,9.061 7.007,8.36 6.741,7.713 6.396,7.117 L 3.574,9.688 C 3.36,9.876 3.151,10.018 2.947,10.111 2.743,10.205 2.503,10.252 2.226,10.252 1.886,10.247 1.583,10.163 1.312,9.996 1.035,9.829 0.82,9.604 0.658,9.327 0.496,9.051 0.413,8.742 0.407,8.402 0.413,8.073 0.475,7.791 0.606,7.546 0.731,7.3 0.909,7.086 1.128,6.897 L 3.856,4.577 C 3.323,4.259 2.738,4.013 2.101,3.841 1.463,3.663 0.784,3.574 0.062,3.574 l -0.031,0 z"
         inkscape:connector-curvature="0" /></g><g
       transform="translate(434.1963,224.959)"
       id="g54"><path
         id="path56"
         style="fill:#ffffff;fill-opacity:1;fill-rule:nonzero;stroke:none"
         d="m 0,0 c 1.437,0 2.738,0.203 3.897,0.616 1.156,0.413 2.149,1.03 2.974,1.851 0.826,0.82 1.458,1.844 1.898,3.077 0.444,1.228 0.663,2.66 0.669,4.301 l 0,10.691 C 9.432,20.897 9.349,21.222 9.181,21.509 9.009,21.796 8.784,22.021 8.497,22.193 8.209,22.36 7.885,22.444 7.524,22.449 7.153,22.444 6.824,22.36 6.532,22.193 6.244,22.021 6.009,21.796 5.842,21.509 5.67,21.222 5.586,20.897 5.581,20.536 l 0,-10.88 C 5.575,8.309 5.351,7.185 4.912,6.281 4.468,5.382 3.835,4.703 3.015,4.253 2.189,3.799 1.207,3.574 0.062,3.574 c -1.155,0 -2.142,0.24 -2.973,0.711 -0.825,0.476 -1.458,1.176 -1.902,2.101 -0.445,0.925 -0.668,2.069 -0.674,3.427 l 0,10.723 c -0.005,0.361 -0.089,0.686 -0.262,0.973 -0.167,0.287 -0.392,0.512 -0.679,0.684 -0.287,0.167 -0.611,0.251 -0.971,0.256 C -7.771,22.444 -8.1,22.36 -8.393,22.193 -8.686,22.021 -8.915,21.796 -9.082,21.509 -9.255,21.222 -9.339,20.897 -9.344,20.536 l 0,-10.88 C -9.339,8.063 -9.119,6.668 -8.686,5.461 -8.252,4.259 -7.625,3.25 -6.81,2.44 -5.994,1.63 -5.017,1.024 -3.867,0.616 -2.718,0.203 -1.432,0 0,0"
         inkscape:connector-curvature="0" /></g><g
       transform="translate(451.0518,225.3037)"
       id="g58"><path
         id="path60"
         style="fill:#ffffff;fill-opacity:1;fill-rule:nonzero;stroke:none"
         d="m 0,0 12.917,0 c 0.319,0.005 0.606,0.078 0.868,0.229 0.256,0.153 0.465,0.356 0.616,0.618 0.158,0.256 0.236,0.549 0.241,0.878 -0.005,0.318 -0.083,0.605 -0.241,0.867 -0.151,0.256 -0.36,0.465 -0.616,0.616 -0.262,0.157 -0.549,0.235 -0.868,0.241 l -11.005,0 0,5.895 9.438,0 c 0.318,0.005 0.606,0.078 0.867,0.229 0.257,0.152 0.466,0.351 0.617,0.607 0.156,0.256 0.235,0.538 0.24,0.856 -0.005,0.329 -0.084,0.622 -0.24,0.889 -0.151,0.261 -0.36,0.471 -0.617,0.627 -0.261,0.157 -0.549,0.235 -0.867,0.24 l -9.438,0 0,5.707 10.849,0 c 0.318,0.005 0.605,0.083 0.867,0.23 0.256,0.151 0.465,0.355 0.617,0.616 0.156,0.257 0.234,0.554 0.24,0.878 -0.006,0.319 -0.084,0.606 -0.24,0.868 -0.152,0.256 -0.361,0.465 -0.617,0.621 -0.262,0.152 -0.549,0.23 -0.867,0.235 L 0,21.947 c -0.371,-0.005 -0.701,-0.088 -0.993,-0.26 -0.293,-0.167 -0.523,-0.398 -0.69,-0.69 -0.172,-0.293 -0.256,-0.622 -0.261,-0.993 l 0,-18.06 c 0.005,-0.371 0.089,-0.7 0.261,-0.993 0.167,-0.293 0.397,-0.522 0.69,-0.69 C -0.701,0.089 -0.371,0.005 0,0"
         inkscape:connector-curvature="0" /></g><g
       transform="translate(485.334,227.0596)"
       id="g62"><path
         id="path64"
         style="fill:#ffffff;fill-opacity:1;fill-rule:nonzero;stroke:none"
         d="m 0,0 c 0.006,-0.36 0.089,-0.685 0.262,-0.967 0.167,-0.287 0.396,-0.517 0.684,-0.684 0.283,-0.173 0.606,-0.256 0.967,-0.262 0.37,0.006 0.7,0.089 0.992,0.262 0.293,0.167 0.523,0.397 0.691,0.684 0.172,0.282 0.256,0.607 0.26,0.967 l 0,6.866 7.495,10.253 c 0.146,0.189 0.271,0.398 0.371,0.633 0.104,0.229 0.156,0.48 0.161,0.747 0,0.35 -0.083,0.663 -0.235,0.945 -0.157,0.288 -0.377,0.512 -0.658,0.68 -0.277,0.167 -0.612,0.251 -0.988,0.256 C 9.6,20.375 9.244,20.271 8.946,20.062 8.648,19.853 8.382,19.57 8.152,19.22 l -6.208,-8.842 -6.114,8.81 c -0.229,0.351 -0.496,0.632 -0.8,0.842 -0.302,0.209 -0.663,0.314 -1.082,0.319 -0.37,-0.005 -0.699,-0.089 -0.992,-0.251 -0.287,-0.162 -0.522,-0.382 -0.69,-0.659 -0.172,-0.277 -0.256,-0.59 -0.261,-0.94 0.005,-0.267 0.047,-0.513 0.125,-0.732 0.084,-0.225 0.188,-0.428 0.313,-0.617 L 0,6.772 Z"
         inkscape:connector-curvature="0" /></g><g
       transform="translate(496.9531,226.9346)"
       id="g66"><path
         id="path68"
         style="fill:#ffffff;fill-opacity:1;fill-rule:nonzero;stroke:none"
         d="m 0,0 c 0.006,-0.341 0.084,-0.644 0.241,-0.91 0.156,-0.267 0.371,-0.481 0.637,-0.638 0.267,-0.156 0.57,-0.234 0.909,-0.24 0.413,0 0.775,0.11 1.082,0.319 0.309,0.209 0.544,0.512 0.705,0.905 l 1.851,4.232 5.33,0 0,3.418 -3.857,0 3.857,8.873 0,4.671 -0.031,0 C 10.175,20.625 9.704,20.484 9.317,20.212 8.926,19.936 8.623,19.554 8.403,19.062 L 0.251,0.877 C 0.173,0.721 0.11,0.569 0.068,0.428 0.021,0.281 0,0.141 0,0 m 10.755,3.668 5.33,0 1.787,-4.107 c 0.173,-0.414 0.418,-0.738 0.732,-0.978 0.313,-0.24 0.695,-0.365 1.15,-0.371 0.35,0.006 0.658,0.089 0.93,0.251 0.271,0.162 0.491,0.382 0.647,0.659 0.157,0.276 0.235,0.59 0.241,0.94 0,0.125 -0.015,0.256 -0.052,0.397 -0.032,0.136 -0.089,0.277 -0.167,0.418 L 13.2,19.062 c -0.22,0.492 -0.517,0.874 -0.898,1.15 -0.377,0.272 -0.842,0.413 -1.39,0.418 l -0.157,0 0,-4.671 3.856,-8.873 -3.856,0 z"
         inkscape:connector-curvature="0" /></g><g
       transform="translate(531.7383,227.0283)"
       id="g70"><path
         id="path72"
         style="fill:#ffffff;fill-opacity:1;fill-rule:nonzero;stroke:none"
         d="m 0,0 c 0.005,-0.351 0.089,-0.664 0.262,-0.946 0.167,-0.283 0.396,-0.507 0.678,-0.68 0.288,-0.167 0.612,-0.25 0.972,-0.256 0.351,0.006 0.664,0.089 0.946,0.256 0.283,0.173 0.512,0.397 0.679,0.68 0.168,0.282 0.251,0.595 0.257,0.946 l 0,13.921 11.287,-14.611 c 0.262,-0.35 0.549,-0.627 0.862,-0.836 0.314,-0.209 0.696,-0.319 1.145,-0.324 l 0.156,0 c 0.361,0.005 0.68,0.088 0.962,0.261 0.282,0.167 0.507,0.398 0.669,0.685 0.162,0.282 0.246,0.606 0.251,0.966 l 0,18.436 c -0.005,0.351 -0.089,0.664 -0.256,0.946 -0.173,0.287 -0.397,0.513 -0.684,0.68 -0.289,0.167 -0.612,0.251 -0.973,0.256 -0.35,-0.005 -0.663,-0.089 -0.945,-0.256 -0.283,-0.167 -0.507,-0.393 -0.68,-0.68 -0.167,-0.282 -0.251,-0.595 -0.256,-0.946 l 0,-13.481 L 4.358,19.22 c -0.256,0.334 -0.544,0.606 -0.852,0.809 -0.308,0.209 -0.694,0.315 -1.154,0.32 l -0.409,0 C 1.573,20.344 1.243,20.255 0.951,20.082 0.658,19.909 0.429,19.674 0.262,19.382 0.089,19.089 0.005,18.766 0,18.404 Z"
         inkscape:connector-curvature="0" /></g><g
       transform="translate(567.1553,224.9277)"
       id="g74"><path
         id="path76"
         style="fill:#ffffff;fill-opacity:1;fill-rule:nonzero;stroke:none"
         d="m 0,0 0.031,0 0,3.574 c -1.08,0.009 -2.073,0.218 -2.973,0.616 -0.91,0.403 -1.694,0.962 -2.363,1.673 -0.663,0.71 -1.18,1.536 -1.541,2.472 -0.366,0.935 -0.549,1.943 -0.553,3.015 l 0,0.062 c 0.004,1.071 0.182,2.075 0.543,3.01 0.355,0.931 0.867,1.756 1.52,2.462 0.658,0.711 1.438,1.264 2.341,1.661 0.904,0.403 1.902,0.606 2.995,0.612 l 0.031,-0.001 0,3.544 c -1.342,-0.009 -2.591,-0.202 -3.752,-0.585 -1.175,-0.387 -2.231,-0.93 -3.177,-1.631 -0.946,-0.7 -1.761,-1.526 -2.435,-2.471 -0.68,-0.947 -1.197,-1.981 -1.563,-3.11 -0.36,-1.129 -0.543,-2.309 -0.548,-3.553 l 0,-0.063 c 0.005,-1.238 0.182,-2.425 0.543,-3.543 0.36,-1.124 0.873,-2.158 1.542,-3.098 C -8.686,3.704 -7.881,2.89 -6.94,2.194 -5.999,1.499 -4.944,0.961 -3.778,0.58 -2.613,0.198 -1.354,0.005 0,0 m 0.031,0 c 1.341,0.008 2.59,0.206 3.752,0.585 1.176,0.387 2.232,0.93 3.183,1.63 0.945,0.7 1.756,1.526 2.434,2.472 0.675,0.946 1.198,1.986 1.558,3.109 0.36,1.129 0.543,2.315 0.549,3.554 l 0,0.062 c -0.006,1.244 -0.184,2.425 -0.544,3.549 -0.356,1.123 -0.872,2.152 -1.541,3.094 -0.675,0.94 -1.48,1.756 -2.42,2.45 C 6.062,21.2 5.011,21.738 3.841,22.12 2.675,22.501 1.416,22.694 0.062,22.7 l -0.031,0 0,-3.544 C 1.116,19.147 2.104,18.938 3.005,18.535 3.914,18.133 4.703,17.568 5.366,16.853 6.03,16.137 6.548,15.311 6.908,14.37 7.273,13.43 7.457,12.421 7.462,11.35 l 0,-0.063 C 7.457,10.216 7.279,9.213 6.919,8.282 6.563,7.353 6.057,6.537 5.397,5.831 4.739,5.126 3.961,4.577 3.057,4.181 2.158,3.783 1.154,3.579 0.062,3.574 l -0.031,0 z"
         inkscape:connector-curvature="0" /></g><g
       transform="translate(601.375,224.959)"
       id="g78"><path
         id="path80"
         style="fill:#ffffff;fill-opacity:1;fill-rule:nonzero;stroke:none"
         d="m 0,0 c 1.437,0 2.738,0.203 3.898,0.616 1.155,0.413 2.148,1.03 2.973,1.851 0.826,0.82 1.458,1.844 1.898,3.077 0.444,1.228 0.664,2.66 0.669,4.301 l 0,10.691 C 9.433,20.897 9.349,21.222 9.182,21.509 9.009,21.796 8.784,22.021 8.497,22.193 8.209,22.36 7.886,22.444 7.524,22.449 7.153,22.444 6.824,22.36 6.532,22.193 6.244,22.021 6.01,21.796 5.842,21.509 5.67,21.222 5.586,20.897 5.581,20.536 l 0,-10.88 C 5.575,8.309 5.351,7.185 4.912,6.281 4.468,5.382 3.836,4.703 3.015,4.253 2.189,3.799 1.207,3.574 0.062,3.574 c -1.154,0 -2.142,0.24 -2.973,0.711 -0.825,0.476 -1.458,1.176 -1.901,2.101 -0.445,0.925 -0.669,2.069 -0.675,3.427 l 0,10.723 c -0.005,0.361 -0.089,0.686 -0.261,0.973 -0.167,0.287 -0.393,0.512 -0.68,0.684 -0.287,0.167 -0.611,0.251 -0.971,0.256 C -7.771,22.444 -8.1,22.36 -8.393,22.193 -8.686,22.021 -8.915,21.796 -9.082,21.509 -9.255,21.222 -9.338,20.897 -9.344,20.536 l 0,-10.88 C -9.338,8.063 -9.119,6.668 -8.686,5.461 -8.252,4.259 -7.624,3.25 -6.81,2.44 -5.994,1.63 -5.017,1.024 -3.867,0.616 -2.718,0.203 -1.432,0 0,0"
         inkscape:connector-curvature="0" /></g><g
       transform="translate(623.9678,224.9902)"
       id="g82"><path
         id="path84"
         style="fill:#ffffff;fill-opacity:1;fill-rule:nonzero;stroke:none"
         d="m 0,0 c 1.16,0 2.216,0.151 3.172,0.444 0.951,0.298 1.782,0.726 2.477,1.29 0.695,0.565 1.233,1.255 1.615,2.06 0.376,0.81 0.569,1.729 0.575,2.759 l 0,0.062 c 0,0.905 -0.147,1.698 -0.444,2.378 -0.298,0.685 -0.737,1.276 -1.328,1.777 -0.585,0.501 -1.322,0.935 -2.195,1.306 -0.877,0.366 -1.896,0.691 -3.057,0.967 -1.05,0.251 -1.918,0.491 -2.602,0.727 -0.685,0.235 -1.218,0.48 -1.605,0.742 -0.38,0.256 -0.652,0.549 -0.804,0.867 -0.157,0.324 -0.23,0.695 -0.225,1.113 l 0,0.063 c 0,0.486 0.147,0.924 0.424,1.317 0.282,0.392 0.689,0.7 1.223,0.93 0.527,0.235 1.175,0.35 1.927,0.355 0.858,0 1.704,-0.141 2.535,-0.418 0.831,-0.277 1.672,-0.695 2.513,-1.244 0.157,-0.094 0.314,-0.162 0.482,-0.209 0.162,-0.047 0.334,-0.073 0.522,-0.073 0.34,0.006 0.643,0.084 0.92,0.24 0.271,0.157 0.491,0.371 0.653,0.638 C 6.935,18.362 7.019,18.666 7.023,19 7.019,19.377 6.93,19.695 6.768,19.957 6.601,20.218 6.407,20.411 6.177,20.536 5.194,21.2 4.134,21.702 2.989,22.053 1.85,22.396 0.591,22.574 -0.784,22.574 -1.876,22.569 -2.879,22.418 -3.794,22.109 -4.703,21.802 -5.497,21.367 -6.166,20.804 -6.835,20.239 -7.353,19.57 -7.718,18.791 -8.084,18.018 -8.272,17.155 -8.277,16.21 l 0,-0.063 c 0,-1.003 0.162,-1.86 0.486,-2.571 0.318,-0.711 0.794,-1.306 1.416,-1.798 0.622,-0.491 1.385,-0.909 2.289,-1.254 C -3.177,10.18 -2.143,9.871 -0.972,9.595 0.042,9.359 0.873,9.129 1.521,8.894 2.174,8.659 2.676,8.413 3.036,8.151 3.392,7.891 3.643,7.604 3.783,7.295 3.92,6.981 3.987,6.631 3.982,6.239 l 0,-0.062 C 3.977,5.628 3.82,5.146 3.507,4.734 3.188,4.321 2.744,4.003 2.163,3.772 1.583,3.537 0.894,3.423 0.095,3.417 -1.092,3.423 -2.184,3.616 -3.188,4.003 -4.196,4.395 -5.147,4.948 -6.051,5.675 -6.177,5.769 -6.328,5.853 -6.511,5.915 -6.694,5.983 -6.913,6.015 -7.18,6.02 -7.52,6.015 -7.822,5.937 -8.095,5.779 -8.371,5.623 -8.586,5.408 -8.747,5.142 -8.909,4.875 -8.993,4.572 -8.998,4.232 -8.993,3.914 -8.926,3.632 -8.784,3.376 -8.648,3.125 -8.471,2.916 -8.246,2.759 -7.018,1.85 -5.712,1.16 -4.321,0.7 -2.937,0.234 -1.494,0 0,0"
         inkscape:connector-curvature="0" /></g><g
       transform="translate(645.5264,251.7852)"
       id="g86"><path
         id="path88"
         style="fill:#ffffff;fill-opacity:1;fill-rule:nonzero;stroke:none"
         d="m 0,0 0,-2.558 -0.095,-0.001 c -0.271,0 -0.496,0.063 -0.669,0.178 -0.176,0.115 -0.265,0.277 -0.271,0.481 0.006,0.115 0.031,0.23 0.078,0.355 0.053,0.126 0.11,0.235 0.173,0.335 z m -10.755,-24.851 c 0.006,-0.34 0.084,-0.643 0.24,-0.91 0.158,-0.266 0.371,-0.48 0.638,-0.637 0.267,-0.157 0.569,-0.235 0.909,-0.241 0.413,0 0.774,0.111 1.082,0.32 0.309,0.209 0.544,0.511 0.705,0.904 l 1.851,4.232 5.33,0 0,3.418 -3.856,0 3.856,8.873 0,4.671 -0.031,0 c -0.549,-0.005 -1.02,-0.145 -1.406,-0.418 -0.392,-0.276 -0.696,-0.658 -0.915,-1.149 l -8.152,-18.186 c -0.078,-0.156 -0.141,-0.307 -0.183,-0.449 -0.046,-0.146 -0.068,-0.287 -0.068,-0.428 M 0,-2.558 0,0 1.003,1.549 c 0.173,0.287 0.387,0.507 0.638,0.669 0.251,0.157 0.538,0.24 0.867,0.24 0.257,0 0.513,-0.036 0.778,-0.104 C 3.548,2.28 3.788,2.187 4.013,2.071 4.238,1.951 4.415,1.82 4.557,1.68 4.692,1.533 4.761,1.387 4.766,1.235 4.766,1.062 4.713,0.9 4.619,0.744 4.52,0.587 4.395,0.436 4.232,0.295 l -2.1,-2.007 C 1.887,-1.937 1.646,-2.114 1.416,-2.239 1.187,-2.359 0.951,-2.443 0.705,-2.49 0.491,-2.532 0.256,-2.554 0,-2.558 m 0,-18.625 5.33,0 1.787,-4.107 c 0.173,-0.413 0.418,-0.737 0.732,-0.978 0.313,-0.24 0.695,-0.365 1.149,-0.371 0.351,0.006 0.659,0.089 0.931,0.251 0.271,0.162 0.491,0.382 0.647,0.659 0.157,0.277 0.236,0.59 0.24,0.941 0,0.125 -0.015,0.256 -0.051,0.396 -0.032,0.136 -0.089,0.278 -0.167,0.418 L 2.445,-5.788 C 2.226,-5.297 1.928,-4.915 1.547,-4.639 1.17,-4.366 0.705,-4.226 0.156,-4.221 l -0.156,0 0,-4.671 3.856,-8.873 -3.856,0 z"
         inkscape:connector-curvature="0" /></g><g
       transform="translate(668.1191,224.9902)"
       id="g90"><path
         id="path92"
         style="fill:#ffffff;fill-opacity:1;fill-rule:nonzero;stroke:none"
         d="m 0,0 c 1.16,0 2.216,0.151 3.172,0.444 0.951,0.298 1.782,0.726 2.477,1.29 0.695,0.565 1.233,1.255 1.615,2.06 0.376,0.81 0.569,1.729 0.575,2.759 l 0,0.062 c 0,0.905 -0.147,1.698 -0.444,2.378 -0.298,0.685 -0.737,1.276 -1.328,1.777 -0.585,0.501 -1.322,0.935 -2.195,1.306 -0.878,0.366 -1.896,0.691 -3.057,0.967 -1.05,0.251 -1.918,0.491 -2.602,0.727 -0.685,0.235 -1.218,0.48 -1.605,0.742 -0.38,0.256 -0.653,0.549 -0.804,0.867 -0.157,0.324 -0.23,0.695 -0.225,1.113 l 0,0.063 c 0,0.486 0.147,0.924 0.424,1.317 0.282,0.392 0.689,0.7 1.223,0.93 0.527,0.235 1.175,0.35 1.927,0.355 0.858,0 1.704,-0.141 2.535,-0.418 0.831,-0.277 1.672,-0.695 2.513,-1.244 0.157,-0.094 0.314,-0.162 0.482,-0.209 0.162,-0.047 0.334,-0.073 0.522,-0.073 0.34,0.006 0.643,0.084 0.92,0.24 0.271,0.157 0.491,0.371 0.653,0.638 C 6.935,18.362 7.019,18.666 7.023,19 7.019,19.377 6.93,19.695 6.768,19.957 6.601,20.218 6.407,20.411 6.177,20.536 5.194,21.2 4.134,21.702 2.989,22.053 1.85,22.396 0.591,22.574 -0.784,22.574 -1.876,22.569 -2.879,22.418 -3.794,22.109 -4.703,21.802 -5.497,21.367 -6.166,20.804 -6.835,20.239 -7.353,19.57 -7.718,18.791 -8.084,18.018 -8.272,17.155 -8.277,16.21 l 0,-0.063 c 0,-1.003 0.162,-1.86 0.486,-2.571 0.318,-0.711 0.794,-1.306 1.416,-1.798 0.621,-0.491 1.385,-0.909 2.289,-1.254 C -3.177,10.18 -2.143,9.871 -0.972,9.595 0.042,9.359 0.873,9.129 1.521,8.894 2.174,8.659 2.676,8.413 3.036,8.151 3.392,7.891 3.643,7.604 3.783,7.295 3.92,6.981 3.987,6.631 3.982,6.239 l 0,-0.062 C 3.977,5.628 3.82,5.146 3.507,4.734 3.188,4.321 2.744,4.003 2.163,3.772 1.583,3.537 0.894,3.423 0.094,3.417 -1.092,3.423 -2.184,3.616 -3.188,4.003 -4.196,4.395 -5.147,4.948 -6.051,5.675 -6.177,5.769 -6.328,5.853 -6.511,5.915 -6.694,5.983 -6.913,6.015 -7.18,6.02 -7.52,6.015 -7.822,5.937 -8.094,5.779 -8.371,5.623 -8.586,5.408 -8.748,5.142 -8.909,4.875 -8.993,4.572 -8.998,4.232 -8.993,3.914 -8.926,3.632 -8.784,3.376 -8.648,3.125 -8.471,2.916 -8.246,2.759 -7.018,1.85 -5.712,1.16 -4.321,0.7 -2.937,0.234 -1.494,0 0,0"
         inkscape:connector-curvature="0" /></g><path
       id="path194"
       style="fill:#ffffff;fill-opacity:1;fill-rule:evenodd;stroke:none"
       d="m 693.677,314.027 6.075,0 0,41.683 -6.075,0 z"
       inkscape:connector-curvature="0" /><g
       transform="translate(152.2935,261.2451)"
       id="g196"><path
         id="path198"
         style="fill:#ffffff;fill-opacity:1;fill-rule:nonzero;stroke:none"
         d="m 0,0 c -0.513,-0.035 -1.038,-0.056 -1.573,-0.061 l -0.003,-0.001 c -1.205,0 -2.401,0.093 -3.591,0.28 -1.185,0.185 -2.356,0.465 -3.518,0.836 l -0.002,0 c -1.156,0.372 -2.279,0.833 -3.366,1.38 -1.086,0.546 -2.136,1.181 -3.145,1.899 L -15.2,4.335 c -1.009,0.727 -1.963,1.531 -2.856,2.414 -0.894,0.884 -1.73,1.849 -2.505,2.898 l -0.001,10e-4 c -0.766,1.049 -1.453,2.181 -2.058,3.39 -0.604,1.208 -1.125,2.491 -1.559,3.842 l 0,0.002 c -0.436,1.365 -0.767,2.797 -0.99,4.295 -0.223,1.494 -0.34,3.062 -0.348,4.707 l -0.001,0.002 0,0.19 0.001,0.002 c 0.008,1.633 0.124,3.194 0.346,4.681 0.223,1.5 0.555,2.931 0.992,4.291 0.435,1.361 0.956,2.644 1.559,3.85 0.605,1.21 1.292,2.342 2.056,3.396 l 0.002,10e-4 c 0.776,1.06 1.612,2.037 2.503,2.929 0.891,0.891 1.845,1.703 2.859,2.433 1.008,0.725 2.058,1.368 3.146,1.924 1.091,0.557 2.215,1.026 3.366,1.405 l 0.003,0 c 1.162,0.371 2.333,0.654 3.517,0.844 1.189,0.19 2.385,0.288 3.592,0.288 l 0.002,-10e-4 C -1.039,52.115 -0.514,52.096 0,52.064 l 0,-7.244 -0.239,0.002 c -1.181,0 -2.321,-0.106 -3.421,-0.316 -1.104,-0.211 -2.168,-0.526 -3.193,-0.945 l 0,0 c -1.025,-0.423 -1.991,-0.94 -2.894,-1.551 -0.894,-0.606 -1.732,-1.309 -2.509,-2.11 l -0.002,-10e-4 c -0.779,-0.795 -1.472,-1.678 -2.08,-2.649 -0.611,-0.976 -1.138,-2.042 -1.582,-3.197 l 10e-4,-10e-4 c -0.439,-1.152 -0.772,-2.386 -0.997,-3.7 -0.225,-1.317 -0.343,-2.711 -0.35,-4.18 l 10e-4,0 0,-0.191 -10e-4,0 c 0.007,-1.442 0.129,-2.811 0.362,-4.106 0.232,-1.289 0.576,-2.509 1.031,-3.66 0.453,-1.157 0.989,-2.229 1.609,-3.213 0.619,-0.983 1.325,-1.884 2.119,-2.701 0.794,-0.819 1.647,-1.544 2.558,-2.172 0.894,-0.617 1.849,-1.142 2.864,-1.568 L -6.721,8.56 C -5.7,8.123 -4.652,7.791 -3.574,7.569 -2.499,7.349 -1.388,7.235 -0.239,7.235 l 0,-0.001 L 0,7.237 Z m 54.521,52.115 0,-6.912 C 53.516,45.188 52.547,45.083 51.613,44.886 50.64,44.68 49.705,44.374 48.807,43.963 l -0.003,-10e-4 c -0.901,-0.403 -1.748,-0.894 -2.542,-1.466 -0.794,-0.573 -1.537,-1.23 -2.231,-1.971 -0.694,-0.74 -1.322,-1.544 -1.885,-2.411 -0.563,-0.869 -1.064,-1.803 -1.502,-2.804 -0.433,-0.989 -0.786,-2.032 -1.063,-3.122 l 0,0 C 39.329,31.195 39.14,30.166 39.013,29.104 l 15.508,0 0,-6.151 -15.51,0 c 0.135,-1.162 0.347,-2.267 0.63,-3.316 0.318,-1.178 0.726,-2.281 1.22,-3.307 l 0,0 c 0.493,-1.017 1.056,-1.955 1.689,-2.81 0.627,-0.852 1.327,-1.624 2.097,-2.317 l 0.001,-10e-4 C 45.412,10.509 46.229,9.897 47.096,9.37 47.958,8.846 48.879,8.401 49.85,8.041 L 49.851,8.04 C 50.816,7.674 51.81,7.401 52.833,7.22 53.387,7.122 53.949,7.051 54.521,7.006 l 0,-7.128 c -1.277,0.063 -2.523,0.214 -3.734,0.449 -1.616,0.315 -3.179,0.783 -4.68,1.405 -1.51,0.622 -2.928,1.377 -4.252,2.265 -1.326,0.89 -2.559,1.912 -3.697,3.066 -1.146,1.155 -2.168,2.419 -3.064,3.792 -0.897,1.374 -1.668,2.854 -2.312,4.441 -0.645,1.59 -1.135,3.273 -1.464,5.045 -0.326,1.758 -0.495,3.606 -0.503,5.543 l -0.001,0.002 0,0.19 0.001,0.002 c 0.008,1.818 0.162,3.574 0.462,5.263 0.301,1.686 0.748,3.312 1.343,4.873 l 0.001,-10e-4 c 0.587,1.569 1.298,3.04 2.127,4.412 0.835,1.382 1.795,2.671 2.875,3.865 1.084,1.197 2.26,2.26 3.529,3.189 1.269,0.931 2.635,1.731 4.098,2.402 1.466,0.668 3.004,1.176 4.613,1.517 1.487,0.316 3.04,0.489 4.658,0.517 M 24.732,69.414 c 0.194,-0.48 0.299,-1.013 0.307,-1.601 l 0.002,-0.004 0,-63.219 -0.002,-0.01 C 25.022,4.001 24.917,3.468 24.723,2.985 24.527,2.501 24.243,2.069 23.871,1.697 l -10e-4,0 C 23.496,1.315 23.076,1.027 22.607,0.83 l 0,-0.001 C 22.143,0.634 21.63,0.529 21.067,0.513 l -0.019,0 C 20.467,0.529 19.931,0.636 19.447,0.834 18.966,1.03 18.538,1.317 18.166,1.697 17.786,2.069 17.499,2.499 17.302,2.979 17.104,3.463 16.997,3.999 16.98,4.58 l -0.001,0.01 0,5.546 C 16.494,9.46 15.981,8.807 15.443,8.176 14.656,7.253 13.81,6.376 12.911,5.54 12.003,4.698 11.023,3.94 9.972,3.268 8.922,2.595 7.798,2.005 6.601,1.495 l -0.002,0 C 5.404,0.991 4.126,0.609 2.765,0.351 1.881,0.183 0.96,0.065 0,0 l 0,7.237 c 1.047,0.022 2.079,0.139 3.092,0.35 1.085,0.225 2.149,0.56 3.184,1.004 1.043,0.444 2.034,0.986 2.967,1.623 0.935,0.638 1.815,1.373 2.635,2.201 0.826,0.826 1.564,1.736 2.216,2.723 0.652,0.988 1.219,2.054 1.703,3.196 0.478,1.152 0.843,2.37 1.089,3.65 0.244,1.273 0.373,2.606 0.381,3.997 l -0.002,0 0,0.191 0.002,0 c -0.008,1.391 -0.137,2.725 -0.382,3.997 -0.245,1.277 -0.61,2.49 -1.088,3.634 -0.484,1.14 -1.051,2.203 -1.703,3.186 -0.651,0.98 -1.388,1.882 -2.215,2.7 l -10e-4,0 c -0.819,0.819 -1.696,1.544 -2.627,2.174 -0.937,0.635 -1.93,1.175 -2.975,1.619 C 5.237,43.928 4.171,44.263 3.083,44.487 2.078,44.694 1.049,44.805 0,44.82 l 0,7.244 c 0.604,-0.039 1.193,-0.097 1.767,-0.176 1.066,-0.145 2.082,-0.36 3.044,-0.643 l 0.002,0 c 0.965,-0.292 1.895,-0.636 2.783,-1.032 0.871,-0.388 1.698,-0.826 2.477,-1.316 l 10e-4,-10e-4 c 0.785,-0.502 1.532,-1.035 2.236,-1.6 0.707,-0.567 1.375,-1.171 1.998,-1.81 0.625,-0.633 1.213,-1.286 1.766,-1.958 0.313,-0.381 0.614,-0.767 0.905,-1.159 l 0,25.44 0.001,0.004 c 0.008,0.586 0.108,1.118 0.296,1.597 0.19,0.485 0.47,0.917 0.835,1.3 0.362,0.38 0.787,0.671 1.269,0.87 0.474,0.194 1.001,0.298 1.578,0.306 l 0.008,0 c 0.588,-0.008 1.121,-0.113 1.601,-0.307 0.484,-0.196 0.916,-0.484 1.299,-0.858 l 0.007,-0.008 c 0.375,-0.382 0.663,-0.815 0.859,-1.299 m 83.423,-68.36 0,-0.001 c -2.152,-0.68 -4.496,-1.02 -6.999,-1.02 -1.101,0 -2.214,0.066 -3.335,0.195 C 96.708,0.355 95.586,0.549 94.46,0.806 93.328,1.055 92.213,1.36 91.115,1.721 90.021,2.079 88.939,2.494 87.869,2.96 l -0.002,0 C 86.822,3.42 85.804,3.931 84.816,4.489 83.822,5.051 82.867,5.657 81.954,6.304 L 81.953,6.303 c -0.199,0.135 -0.385,0.303 -0.558,0.501 -0.167,0.191 -0.324,0.413 -0.47,0.663 l -0.006,0.008 c -0.143,0.259 -0.254,0.541 -0.331,0.842 -0.074,0.29 -0.117,0.606 -0.126,0.944 l 0,0.013 c 0.009,0.485 0.102,0.935 0.277,1.346 0.175,0.412 0.431,0.784 0.765,1.111 l 0,0 c 0.332,0.333 0.714,0.584 1.14,0.757 0.426,0.174 0.898,0.268 1.407,0.285 l 0.012,10e-4 c 0.181,0 0.365,-0.013 0.55,-0.04 l 0.002,0 c 0.18,-0.026 0.36,-0.066 0.535,-0.118 l 0.004,-0.002 c 0.176,-0.054 0.346,-0.124 0.505,-0.207 0.154,-0.081 0.302,-0.176 0.436,-0.282 1.241,-0.842 2.497,-1.584 3.765,-2.228 1.274,-0.645 2.558,-1.189 3.849,-1.63 1.296,-0.44 2.596,-0.77 3.898,-0.99 1.301,-0.218 2.611,-0.328 3.932,-0.328 0.969,0 1.882,0.08 2.733,0.237 0.862,0.158 1.668,0.395 2.415,0.707 0.739,0.307 1.399,0.679 1.976,1.113 0.571,0.43 1.064,0.923 1.473,1.476 l 0.001,0.003 c 0.829,1.1 1.251,2.413 1.267,3.941 l -0.002,0 0,0.19 0.002,0 c -0.008,0.583 -0.091,1.121 -0.247,1.62 -0.156,0.495 -0.386,0.952 -0.69,1.373 -0.318,0.423 -0.695,0.823 -1.13,1.195 -0.436,0.371 -0.929,0.716 -1.479,1.028 -0.571,0.325 -1.187,0.637 -1.85,0.93 -0.639,0.281 -1.313,0.543 -2.018,0.777 l -0.005,0.002 c -0.725,0.252 -1.472,0.496 -2.238,0.731 -0.76,0.234 -1.561,0.464 -2.402,0.693 l -0.002,0.002 c -0.989,0.273 -1.968,0.561 -2.933,0.864 -0.984,0.309 -1.952,0.633 -2.901,0.973 l 0,0.001 c -0.972,0.344 -1.899,0.734 -2.78,1.163 -0.884,0.431 -1.732,0.911 -2.543,1.434 -0.82,0.525 -1.553,1.119 -2.203,1.779 -0.65,0.661 -1.22,1.39 -1.712,2.185 -0.493,0.797 -0.864,1.689 -1.115,2.668 -0.252,0.983 -0.385,2.055 -0.402,3.212 l -0.001,0.004 0,0.19 0.001,0.002 c 0.008,1.095 0.119,2.135 0.331,3.12 0.215,0.991 0.535,1.933 0.96,2.825 0.424,0.889 0.936,1.716 1.536,2.479 0.597,0.76 1.283,1.459 2.06,2.097 l 0,0 c 0.764,0.635 1.6,1.198 2.507,1.687 0.904,0.487 1.878,0.902 2.925,1.242 1.037,0.34 2.127,0.6 3.268,0.774 1.14,0.173 2.332,0.263 3.574,0.263 0.885,0 1.784,-0.045 2.697,-0.132 0.906,-0.087 1.816,-0.216 2.731,-0.384 l 0.002,0 c 0.916,-0.177 1.824,-0.386 2.723,-0.629 0.9,-0.243 1.792,-0.52 2.676,-0.834 l 0.002,-0.001 c 0.898,-0.324 1.774,-0.675 2.623,-1.053 0.85,-0.377 1.674,-0.782 2.471,-1.212 l 0.009,-0.006 c 0.273,-0.158 0.53,-0.349 0.766,-0.573 0.227,-0.216 0.436,-0.463 0.622,-0.743 0.194,-0.281 0.341,-0.595 0.441,-0.937 0.1,-0.34 0.153,-0.708 0.161,-1.102 l 0,-0.012 c -0.008,-0.484 -0.101,-0.935 -0.276,-1.346 -0.174,-0.411 -0.431,-0.784 -0.766,-1.111 l 0.001,0 c -0.333,-0.333 -0.715,-0.584 -1.139,-0.757 -0.427,-0.173 -0.898,-0.267 -1.408,-0.285 l -0.011,-10e-4 c -0.181,0 -0.358,0.013 -0.53,0.038 -0.161,0.023 -0.319,0.057 -0.474,0.099 l 0,0 c -0.137,0.032 -0.27,0.073 -0.395,0.118 -0.145,0.053 -0.273,0.11 -0.383,0.164 l -0.018,0.01 c -1.057,0.604 -2.117,1.138 -3.177,1.599 l -0.002,0 c -1.054,0.458 -2.119,0.849 -3.192,1.17 l -0.003,0.002 c -1.075,0.329 -2.141,0.581 -3.198,0.749 -1.051,0.167 -2.099,0.253 -3.144,0.253 l 0,0.001 c -0.955,-0.008 -1.846,-0.086 -2.67,-0.237 -0.816,-0.15 -1.567,-0.374 -2.25,-0.673 l -0.002,0 c -0.687,-0.298 -1.295,-0.649 -1.823,-1.056 -0.525,-0.402 -0.971,-0.86 -1.34,-1.373 L 91.637,41.672 C 91.27,41.17 90.996,40.63 90.813,40.056 90.629,39.478 90.535,38.86 90.527,38.205 l 0.001,0 0,-0.191 -0.001,0 c 0.008,-0.54 0.093,-1.043 0.256,-1.51 0.161,-0.464 0.401,-0.896 0.718,-1.294 l 0,-10e-4 c 0.334,-0.402 0.729,-0.783 1.185,-1.142 0.454,-0.357 0.966,-0.689 1.538,-0.994 0.586,-0.312 1.214,-0.611 1.882,-0.895 0.673,-0.287 1.38,-0.56 2.123,-0.817 l 0,0 c 0.769,-0.258 1.544,-0.513 2.32,-0.76 0.765,-0.244 1.572,-0.493 2.423,-0.747 0.968,-0.277 1.932,-0.577 2.895,-0.902 0.958,-0.323 1.903,-0.668 2.835,-1.034 0.947,-0.369 1.85,-0.776 2.713,-1.228 0.86,-0.451 1.676,-0.944 2.452,-1.485 0.785,-0.539 1.493,-1.145 2.12,-1.813 0.628,-0.668 1.178,-1.403 1.645,-2.199 0.473,-0.805 0.834,-1.697 1.077,-2.674 0.238,-0.959 0.364,-2.006 0.372,-3.137 l 0.002,-10e-4 0,-0.192 -0.002,-10e-4 c -0.008,-1.198 -0.126,-2.33 -0.357,-3.391 -0.233,-1.069 -0.58,-2.075 -1.047,-3.017 l 10e-4,-10e-4 c -0.458,-0.939 -1.009,-1.813 -1.65,-2.613 -0.633,-0.791 -1.36,-1.512 -2.174,-2.155 -0.818,-0.655 -1.703,-1.23 -2.656,-1.723 -0.944,-0.49 -1.959,-0.902 -3.043,-1.234 m -53.634,21.899 0,6.151 15.509,0 c -0.097,0.981 -0.247,1.937 -0.45,2.869 -0.229,1.051 -0.527,2.075 -0.895,3.07 -0.367,0.991 -0.8,1.925 -1.302,2.801 -0.501,0.875 -1.07,1.695 -1.709,2.457 -0.637,0.754 -1.345,1.43 -2.121,2.026 -0.775,0.594 -1.619,1.109 -2.533,1.543 -0.915,0.433 -1.9,0.763 -2.956,0.986 -1.063,0.224 -2.197,0.341 -3.403,0.349 l -0.14,-0.002 0,6.912 0.329,0.004 0.003,0 c 1.486,-0.009 2.902,-0.126 4.249,-0.353 1.356,-0.229 2.644,-0.569 3.863,-1.021 l 0,-10e-4 c 1.217,-0.444 2.37,-0.978 3.454,-1.603 1.088,-0.627 2.105,-1.344 3.051,-2.153 0.937,-0.8 1.802,-1.665 2.594,-2.596 0.79,-0.928 1.509,-1.926 2.157,-2.996 l 0.003,-0.003 c 0.634,-1.068 1.198,-2.181 1.686,-3.34 0.486,-1.157 0.894,-2.355 1.216,-3.594 l 0,0 c 0.331,-1.241 0.581,-2.511 0.749,-3.805 0.166,-1.289 0.25,-2.592 0.25,-3.909 l -0.001,-0.009 c -0.008,-0.367 -0.058,-0.717 -0.149,-1.047 -0.09,-0.328 -0.223,-0.634 -0.397,-0.914 -0.176,-0.281 -0.38,-0.537 -0.611,-0.762 -0.227,-0.221 -0.48,-0.412 -0.758,-0.569 l -0.003,-0.002 c -0.288,-0.156 -0.584,-0.278 -0.894,-0.361 -0.313,-0.084 -0.638,-0.128 -0.979,-0.128 z m 0,-23.075 0,7.128 c 0.485,-0.038 0.978,-0.057 1.477,-0.057 l 0,-10e-4 c 1.001,0.007 1.962,0.071 2.881,0.192 0.914,0.121 1.789,0.3 2.623,0.542 l 0.003,0.002 c 0.838,0.234 1.64,0.516 2.405,0.843 0.766,0.329 1.496,0.703 2.187,1.123 l 0.001,10e-4 c 0.702,0.421 1.376,0.876 2.026,1.367 0.647,0.488 1.267,1.009 1.862,1.566 l 0.015,0.012 c 0.159,0.133 0.323,0.254 0.491,0.361 0.164,0.106 0.339,0.204 0.522,0.291 l 0.007,0.004 c 0.193,0.088 0.399,0.16 0.619,0.209 0.22,0.05 0.449,0.077 0.688,0.077 l 0.005,-10e-4 c 0.504,-0.009 0.971,-0.099 1.395,-0.269 l -10e-4,-0.001 c 0.433,-0.172 0.819,-0.425 1.155,-0.752 l 0.004,-0.003 c 0.334,-0.333 0.59,-0.711 0.766,-1.129 0.174,-0.413 0.267,-0.862 0.276,-1.345 l 0.001,-0.005 c 0,-0.238 -0.028,-0.479 -0.082,-0.721 l 0,-10e-4 C 75.794,9.073 75.714,8.839 75.609,8.611 L 75.606,8.607 C 75.499,8.382 75.363,8.162 75.203,7.953 75.05,7.756 74.873,7.566 74.673,7.39 73.889,6.622 73.072,5.91 72.225,5.251 71.377,4.592 70.49,3.979 69.567,3.412 l 0,10e-4 C 68.654,2.847 67.685,2.347 66.664,1.911 65.635,1.473 64.555,1.1 63.428,0.794 l 0,0.001 C 62.294,0.479 61.091,0.245 59.823,0.088 58.561,-0.068 57.221,-0.148 55.808,-0.156 l -0.003,0 c -0.431,0.002 -0.859,0.013 -1.284,0.034"
         inkscape:connector-curvature="0" /></g></g></svg>